<?xml version="1.0" ?><svg width="64px" height="64px" viewBox="0 0 64 64" xmlns="http://www.w3.org/2000/svg"><defs><style>.cls-1{fill:#22b573;}.cls-1,.cls-4{stroke:#004924;}.cls-1,.cls-2,.cls-3,.cls-4{stroke-miterlimit:10;stroke-width:2px;}.cls-2{fill:#8c6239;}.cls-2,.cls-3{stroke:#42210b;}.cls-3{fill:#c69c6d;}.cls-4{fill:none;stroke-linecap:round;}.cls-5{fill:#33d186;}</style></defs><title/><g data-name="Layer 7" id="Layer_7"><path class="cls-1" d="M28.8,7.63h.41a7.67,7.67,0,0,1,7.67,7.67V41.63a0,0,0,0,1,0,0H21.13a0,0,0,0,1,0,0V15.3A7.67,7.67,0,0,1,28.8,7.63Z"/><path class="cls-1" d="M44.88,41.63H34.08L31.57,26c-.64-4,2.75-7.7,7.67-7.7h.47c4.92,0,8.31,3.73,7.67,7.7Z"/><polygon class="cls-2" points="44.3 56.38 19.7 56.38 16.14 46.82 47.86 46.82 44.3 56.38"/><rect class="cls-3" height="5.38" rx="1.9" ry="1.9" width="38.25" x="12.88" y="41.5"/><line class="cls-4" x1="23.69" x2="19.56" y1="16" y2="12.25"/><line class="cls-4" x1="34.87" x2="39.38" y1="12.93" y2="8.82"/><line class="cls-4" x1="22.23" x2="18.87" y1="26.25" y2="23.67"/><line class="cls-4" x1="21.69" x2="17.56" y1="37" y2="33.25"/><line class="cls-4" x1="44.92" x2="49.96" y1="33.17" y2="29.96"/><circle class="cls-5" cx="30.75" cy="17.5" r="1.75"/><circle class="cls-5" cx="26.75" cy="25.5" r="1.75"/><circle class="cls-5" cx="27.75" cy="12.5" r="1.75"/><circle class="cls-5" cx="40.75" cy="37.5" r="1.75"/><circle class="cls-5" cx="27.75" cy="36.5" r="1.75"/><circle class="cls-5" cx="39.75" cy="24.5" r="1.75"/><circle class="cls-5" cx="35.75" cy="29.5" r="1.75"/><line class="cls-4" x1="44.37" x2="48.5" y1="23.72" y2="19.4"/><line class="cls-4" x1="34.46" x2="30.2" y1="33.5" y2="30.22"/></g></svg>